<?xml version="1.0" encoding="utf-8"?>
<!-- Generator: Adobe Illustrator 16.0.0, SVG Export Plug-In . SVG Version: 6.00 Build 0)  -->
<!DOCTYPE svg PUBLIC "-//W3C//DTD SVG 1.1//EN" "http://www.w3.org/Graphics/SVG/1.1/DTD/svg11.dtd">
<svg version="1.1" id="Layer_1" xmlns="http://www.w3.org/2000/svg" xmlns:xlink="http://www.w3.org/1999/xlink" x="0px" y="0px"
	 width="88px" height="88px" viewBox="0 0 88 88" enable-background="new 0 0 88 88" xml:space="preserve">
<image display="none" overflow="visible" width="88" height="88" xlink:href="../sun.png"  transform="matrix(1.0002 0 0 1.0002 0 0)">
</image>
<circle fill="#F2AE02" cx="44.01" cy="45.01" r="24"/>
<path fill="#F2AE02" d="M49.897,8.637c0-1.252-2.649-7.268-5.917-7.268c-3.268,0-5.917,6.016-5.917,7.268
	c0,1.253,2.649,3.269,5.917,3.269C47.248,11.905,49.897,9.89,49.897,8.637z"/>
<path fill="#F2AE02" d="M49.897,79.637c0,1.252-2.649,7.268-5.917,7.268c-3.268,0-5.917-6.016-5.917-7.268
	c0-1.253,2.649-3.269,5.917-3.269C47.248,76.368,49.897,78.384,49.897,79.637z"/>
<path fill="#F2AE02" d="M8.48,38.22c-1.252,0-7.268,2.649-7.268,5.917s6.016,5.918,7.268,5.918c1.253,0,3.269-2.65,3.269-5.918
	S9.733,38.22,8.48,38.22z"/>
<path fill="#F2AE02" d="M79.48,38.22c1.252,0,7.268,2.649,7.268,5.917s-6.016,5.918-7.268,5.918c-1.253,0-3.269-2.65-3.269-5.918
	S78.228,38.22,79.48,38.22z"/>
<path fill="#F2AE02" d="M23.403,17.701c-0.779-0.779-6.167-2.872-8.199-0.84c-2.032,2.032,0.061,7.42,0.839,8.199
	c0.779,0.779,3.681,0.385,5.713-1.647C23.789,21.381,24.183,18.48,23.403,17.701z"/>
<path fill="#F2AE02" d="M65.716,72.73c0.778,0.779,6.167,2.872,8.198,0.84c2.032-2.031-0.061-7.42-0.839-8.199
	c-0.779-0.779-3.681-0.385-5.713,1.648C65.33,69.051,64.937,71.951,65.716,72.73z"/>
<path fill="#F2AE02" d="M18.045,66.372c-0.779,0.778-2.872,6.167-0.84,8.198c2.032,2.032,7.42-0.061,8.199-0.839
	c0.779-0.779,0.385-3.681-1.647-5.713C21.725,65.986,18.824,65.593,18.045,66.372z"/>
<path fill="#F2AE02" d="M73.074,24.06c0.779-0.778,2.872-6.167,0.84-8.198c-2.031-2.032-7.42,0.061-8.199,0.839
	c-0.779,0.779-0.385,3.681,1.648,5.713C69.395,24.445,72.295,24.839,73.074,24.06z"/>
</svg>
